<svg width="19" height="20" viewBox="0 0 19 20" fill="none" xmlns="http://www.w3.org/2000/svg">
                        <path d="M0.496072 7.5H18.024C18.2968 7.5 18.52 7.71094 18.52 7.96875V18.125C18.52 19.1602 17.6312 20 16.5357 20H1.98429C0.888796 20 0 19.1602 0 18.125V7.96875C0 7.71094 0.223232 7.5 0.496072 7.5ZM18.52 5.78125V4.375C18.52 3.33984 17.6312 2.5 16.5357 2.5H14.5514V0.46875C14.5514 0.210938 14.3282 0 14.0554 0H12.4018C12.129 0 11.9057 0.210938 11.9057 0.46875V2.5H6.6143V0.46875C6.6143 0.210938 6.39106 0 6.11822 0H4.46465C4.19181 0 3.96858 0.210938 3.96858 0.46875V2.5H1.98429C0.888796 2.5 0 3.33984 0 4.375V5.78125C0 6.03906 0.223232 6.25 0.496072 6.25H18.024C18.2968 6.25 18.52 6.03906 18.52 5.78125Z" fill="black"/>
                        </svg>