<svg
                  width="20"
                  height="15"
                  viewBox="0 0 22 24"
                  fill="none"
                  xmlns="http://www.w3.org/2000/svg"
                >
                  <path
                    d="M0.589286 9H21.4107C21.7348 9 22 9.25313 22 9.5625V21.75C22 22.9922 20.9442 24 19.6429 24H2.35714C1.0558 24 0 22.9922 0 21.75V9.5625C0 9.25313 0.265179 9 0.589286 9ZM22 6.9375V5.25C22 4.00781 20.9442 3 19.6429 3H17.2857V0.5625C17.2857 0.253125 17.0205 0 16.6964 0H14.7321C14.408 0 14.1429 0.253125 14.1429 0.5625V3H7.85714V0.5625C7.85714 0.253125 7.59196 0 7.26786 0H5.30357C4.97946 0 4.71429 0.253125 4.71429 0.5625V3H2.35714C1.0558 3 0 4.00781 0 5.25V6.9375C0 7.24687 0.265179 7.5 0.589286 7.5H21.4107C21.7348 7.5 22 7.24687 22 6.9375Z"
                    fill="white"
                  />
                </svg>